<svg xmlns="http://www.w3.org/2000/svg" version="1.1" xmlns:xlink="http://www.w3.org/1999/xlink" xmlns:svgjs="http://svgjs.com/svgjs" width="1440" height="560" preserveAspectRatio="none" viewBox="0 0 1440 560"><g mask="url(&quot;#SvgjsMask1021&quot;)" fill="none"><path d="M906.764,138.319C928.952,136.715,946.608,122.657,958.717,103.995C972.349,82.985,986.088,57.122,973.499,35.471C960.945,13.88,931.74,14.608,906.764,14.645C881.884,14.682,854.395,15.118,840.372,35.669C824.883,58.368,825.012,89.51,839.936,112.584C853.831,134.067,881.246,140.164,906.764,138.319" fill="rgba(28, 83, 142, 0.4)" class="triangle-float2"></path><path d="M298.0194502311294 538.4815406546054L186.82867987660973 454.6932853199074 214.23119489643136 649.672311009125z" fill="rgba(28, 83, 142, 0.4)" class="triangle-float1"></path><path d="M78.9420886823135 496.82473685634454L18.559944579670812 419.5391167782904-58.72567549838335 479.92126088093306 1.656468604259345 557.2068809589872z" fill="rgba(28, 83, 142, 0.4)" class="triangle-float1"></path><path d="M218.77207120353637 79.27502363836778L129.21598527140185 76.14765620494859 126.08861783798267 165.7037421370831 215.64470377011716 168.8311095705023z" fill="rgba(28, 83, 142, 0.4)" class="triangle-float3"></path><path d="M1223.306,557.447C1242.523,556.137,1259.097,545.875,1269.518,529.675C1281.041,511.762,1288.55,489.875,1279.032,470.821C1268.638,450.013,1246.559,437.706,1223.306,437.16C1199.053,436.59,1175.149,447.178,1162.855,468.092C1150.409,489.266,1150.964,516.472,1164.727,536.815C1177.161,555.193,1201.168,558.956,1223.306,557.447" fill="rgba(28, 83, 142, 0.4)" class="triangle-float3"></path><path d="M1166.603740799114-74.50608041203928L1108.9649400199125 68.15495764324301 1251.6259780751948 125.79375842244438 1309.2647788543961-16.867279632837906z" fill="rgba(28, 83, 142, 0.4)" class="triangle-float2"></path><path d="M703.130701942516 168.37532790338008L727.4953438646024 306.5540786776037 865.674094638826 282.1894367555172 841.3094527167395 144.01068598129365z" fill="rgba(28, 83, 142, 0.4)" class="triangle-float3"></path><path d="M1362.306,222.273C1378.412,222.147,1392.98,214.379,1402.115,201.114C1412.896,185.46,1421.479,165.89,1412.775,148.993C1403.549,131.084,1382.449,123.465,1362.306,123.838C1342.847,124.198,1324.021,133.573,1314.974,150.804C1306.446,167.046,1311.272,186.453,1321.401,201.748C1330.429,215.38,1345.956,222.401,1362.306,222.273" fill="rgba(28, 83, 142, 0.4)" class="triangle-float2"></path></g><defs><mask id="SvgjsMask1021"><rect width="1440" height="560" fill="#ffffff"></rect></mask><style>
            @keyframes float1 {
                0%{transform: translate(0, 0)}
                50%{transform: translate(-10px, 0)}
                100%{transform: translate(0, 0)}
            }

            .triangle-float1 {
                animation: float1 5s infinite;
            }

            @keyframes float2 {
                0%{transform: translate(0, 0)}
                50%{transform: translate(-5px, -5px)}
                100%{transform: translate(0, 0)}
            }

            .triangle-float2 {
                animation: float2 4s infinite;
            }

            @keyframes float3 {
                0%{transform: translate(0, 0)}
                50%{transform: translate(0, -10px)}
                100%{transform: translate(0, 0)}
            }

            .triangle-float3 {
                animation: float3 6s infinite;
            }
        </style></defs></svg>